<svg width="1076" height="138" viewBox="0 0 1076 138" fill="none" xmlns="http://www.w3.org/2000/svg">
<g clip-path="url(#clip0_940_12112)">
<path d="M137.31 68.0146H137.322C137.322 105.943 106.589 136.676 68.6602 136.676C30.7315 136.676 -0.00168926 105.929 -0.00195312 68.0146H68.6514C68.9986 30.3981 99.5967 0.000115493 137.31 0V68.0146ZM103.796 37.623C99.5519 37.6233 96.1116 41.0636 96.1113 45.3076C96.1113 49.5518 99.5517 52.9929 103.796 52.9932C108.04 52.9932 111.481 49.552 111.481 45.3076C111.481 41.0635 108.04 37.623 103.796 37.623Z" fill="black"/>
<path d="M1036.46 137.999C1005.9 137.999 997.337 121.724 997.506 108.161C997.549 104.77 999.71 103.075 1003.14 103.075H1009.25C1012.76 103.075 1014.29 104.94 1014.63 108.458C1015.52 116.85 1021.03 122.02 1036.24 122.02C1051.84 122.02 1058.79 116.468 1058.79 107.907C1058.79 100.363 1054.51 97.6077 1043.87 95.7853L1025.56 92.6489C1010.22 90.0212 1000.05 81.3751 1000.05 65.863C1000.05 48.4012 1013.02 35.6016 1037.01 35.6016C1061.84 35.6016 1074.77 48.6131 1074.56 63.7862C1074.52 67.1344 1072.27 68.8298 1068.88 68.8298H1062.69C1059.17 68.8298 1057.9 66.9649 1057.39 63.5319C1056.5 57.2168 1051.33 51.4528 1037.01 51.4528C1022.77 51.4528 1017.17 57.4711 1017.17 65.2696C1017.17 72.0085 1021.07 74.9753 1030.82 76.713L1049.13 79.9341C1064.98 82.7314 1076 90.4874 1076 107.102C1076 122.614 1066.63 137.999 1036.46 137.999Z" fill="black"/>
<path d="M918.118 86.8001C918.118 108.415 928.926 121.724 948.592 121.724C961.434 121.724 969.19 115.536 971.012 107.144C971.733 103.796 973.174 102.016 976.607 102.016H982.964C986.44 102.016 988.686 103.838 988.432 107.271C987.245 122.656 973.047 137.999 948.464 137.999C919.22 137.999 900.656 117.867 900.656 86.8001C900.656 55.7334 919.22 35.6016 948.464 35.6016C973.047 35.6016 987.245 50.9442 988.432 66.3292C988.686 69.7622 986.44 71.5846 982.964 71.5846H976.607C973.174 71.5846 971.733 69.8046 971.012 66.4563C969.19 58.0645 961.434 51.8766 948.592 51.8766C928.926 51.8766 918.118 65.1848 918.118 86.8001Z" fill="black"/>
<path d="M866.87 43.4001C866.87 39.8823 868.777 37.9751 872.295 37.9751H878.737C882.255 37.9751 884.162 39.8823 884.162 43.4001V130.2C884.162 133.718 882.255 135.625 878.737 135.625H872.295C868.777 135.625 866.87 133.718 866.87 130.2V43.4001ZM864.92 5.42501C864.92 1.90723 866.827 0 870.345 0H880.686C884.204 0 886.111 1.90723 886.111 5.42501V16.275C886.111 19.7928 884.204 21.7 880.686 21.7H870.345C866.827 21.7 864.92 19.7928 864.92 16.275V5.42501Z" fill="black"/>
<path d="M823.678 135.625C813.549 135.625 808.166 129.479 808.166 121.13V14.5793C808.166 11.0615 810.073 9.1543 813.591 9.1543H820.033C823.551 9.1543 825.458 11.0615 825.458 14.5793V37.9747H846.565C850.083 37.9747 851.99 39.8819 851.99 43.3997V49.3333C851.99 52.8511 850.083 54.7583 846.565 54.7583H825.458V119.35H844.87C848.388 119.35 850.295 121.257 850.295 124.775V130.2C850.295 133.718 848.388 135.625 844.87 135.625H823.678Z" fill="black"/>
<path d="M751.454 137.999C720.896 137.999 712.335 121.724 712.504 108.161C712.547 104.77 714.708 103.075 718.141 103.075H724.245C727.762 103.075 729.288 104.94 729.627 108.458C730.517 116.85 736.027 122.02 751.243 122.02C766.84 122.02 773.79 116.468 773.79 107.907C773.79 100.363 769.51 97.6077 758.872 95.7853L740.562 92.6489C725.219 90.0212 715.047 81.3751 715.047 65.863C715.047 48.4012 728.017 35.6016 752.005 35.6016C776.842 35.6016 789.769 48.6131 789.557 63.7862C789.514 67.1344 787.268 68.8298 783.878 68.8298H777.69C774.172 68.8298 772.9 66.9649 772.392 63.5319C771.502 57.2168 766.331 51.4528 752.005 51.4528C737.765 51.4528 732.17 57.4711 732.17 65.2696C732.17 72.0085 736.069 74.9753 745.818 76.713L764.127 79.9341C779.978 82.7314 790.998 90.4874 790.998 107.102C790.998 122.614 781.631 137.999 751.454 137.999Z" fill="black"/>
<path d="M651.889 138C629.935 138 616.33 122.997 616.33 98.8384V43.4016C616.33 39.8838 618.237 37.9766 621.755 37.9766H628.282C631.8 37.9766 633.707 39.8838 633.707 43.4016V96.9736C633.707 113.884 641.929 121.471 655.323 121.471C673.378 121.471 678.718 108.078 678.718 92.2267V43.4016C678.718 39.8838 680.625 37.9766 684.143 37.9766H690.585C694.103 37.9766 696.01 39.8838 696.01 43.4016V130.202C696.01 133.72 694.103 135.627 690.585 135.627H684.143C680.625 135.627 678.718 133.72 678.718 130.202V126.175C672.784 133.974 663.545 138 651.889 138Z" fill="black"/>
<path d="M554.319 137.999C528.296 137.999 507.782 119.732 507.782 86.8001C507.782 53.8686 528.296 35.6016 554.319 35.6016C580.342 35.6016 600.855 53.8686 600.855 86.8001C600.855 119.732 580.342 137.999 554.319 137.999ZM554.319 121.724C569.746 121.724 583.394 110.45 583.394 86.8001C583.394 63.1504 569.746 51.8766 554.319 51.8766C538.891 51.8766 525.244 63.1504 525.244 86.8001C525.244 110.45 538.891 121.724 554.319 121.724Z" fill="black"/>
<path d="M428.393 86.8001C428.393 108.415 439.201 121.724 458.867 121.724C471.709 121.724 479.465 115.536 481.288 107.144C482.008 103.796 483.449 102.016 486.882 102.016H493.24C496.715 102.016 498.961 103.838 498.707 107.271C497.52 122.656 483.322 137.999 458.74 137.999C429.495 137.999 410.932 117.867 410.932 86.8001C410.932 55.7334 429.495 35.6016 458.74 35.6016C483.322 35.6016 497.52 50.9442 498.707 66.3292C498.961 69.7622 496.715 71.5846 493.24 71.5846H486.882C483.449 71.5846 482.008 69.8046 481.288 66.4563C479.465 58.0645 471.709 51.8766 458.867 51.8766C439.201 51.8766 428.393 65.1848 428.393 86.8001Z" fill="black"/>
<path d="M344.595 89.6834C341.077 89.6834 339.17 87.7762 339.17 84.2584V78.4944C339.17 74.9766 341.077 73.0693 344.595 73.0693H390.114C393.632 73.0693 395.539 74.9766 395.539 78.4944V84.2584C395.539 87.7762 393.632 89.6834 390.114 89.6834H344.595Z" fill="black"/>
<path d="M301.15 43.4001C301.15 39.8823 303.057 37.9751 306.575 37.9751H313.017C316.535 37.9751 318.442 39.8823 318.442 43.4001V130.2C318.442 133.718 316.535 135.625 313.017 135.625H306.575C303.057 135.625 301.15 133.718 301.15 130.2V43.4001ZM299.2 5.42501C299.2 1.90723 301.107 0 304.625 0H314.967C318.485 0 320.392 1.90723 320.392 5.42501V16.275C320.392 19.7928 318.485 21.7 314.967 21.7H304.625C301.107 21.7 299.2 19.7928 299.2 16.275V5.42501Z" fill="black"/>
<path d="M242.103 35.6016C268.381 35.6016 280.29 48.0621 280.248 68.194L280.163 105.364C280.163 112.484 280.417 122.698 281.35 129.819C281.816 133.506 280.248 135.625 276.518 135.625H270.754C267.406 135.625 265.498 134.354 265.159 131.768L264.185 124.436C259.014 132.955 248.884 137.321 236.466 137.321C214.045 137.321 200.229 124.097 200.229 106.084C200.229 90.3179 211.333 80.6122 230.236 79.256L257.827 77.3063C262.828 76.9673 263.04 76.5011 263.04 71.8389V67.7278C263.04 56.8778 256.471 51.368 242.103 51.368C228.074 51.368 221.844 56.7506 221.251 64.2948C220.996 67.855 219.767 69.7622 216.165 69.7622H209.553C206.12 69.7622 203.958 68.0245 203.916 64.6339C203.789 48.7826 215.444 35.6016 242.103 35.6016ZM217.69 106.254C217.69 115.748 225.446 122.571 238.67 122.571C254.14 122.571 263.04 113.247 263.04 99.2607V90.0636C261.006 90.7841 258.59 91.2927 255.835 91.547L231.677 93.8357C222.861 94.6833 217.69 98.074 217.69 106.254Z" fill="black"/>
</g>
<defs>
<clipPath id="clip0_940_12112">
<rect width="1076" height="138" fill="white"/>
</clipPath>
</defs>
</svg>
